<?xml version="1.0" encoding="utf-8"?>
<!-- Generator: Adobe Illustrator 16.0.0, SVG Export Plug-In . SVG Version: 6.00 Build 0)  -->
<!DOCTYPE svg PUBLIC "-//W3C//DTD SVG 1.1//EN" "http://www.w3.org/Graphics/SVG/1.1/DTD/svg11.dtd">
<svg version="1.1" id="Layer_1" xmlns="http://www.w3.org/2000/svg" xmlns:xlink="http://www.w3.org/1999/xlink" x="0px" y="0px"
	 width="336.167px" height="99px" viewBox="0 0 336.167 99" enable-background="new 0 0 336.167 99" xml:space="preserve">
<g>
	<path fill="#C4C4C4" stroke="#C4C4C4" stroke-miterlimit="10" d="M25.538,22.36c-14.54,6.72-22.87,14.54-22.87,22.89V9.5
		L25.538,22.36z"/>
</g>
<g>
	<path fill="#C4C4C4" stroke="#C4C4C4" stroke-miterlimit="10" d="M26.027,68.36L2.667,81.5v-36
		C2.837,53.85,11.337,61.66,26.027,68.36z"/>
</g>
<linearGradient id="SVGID_1_" gradientUnits="userSpaceOnUse" x1="169.167" y1="0" x2="169.167" y2="90.5005">
	<stop  offset="0" style="stop-color:#FFFFFF"/>
	<stop  offset="1" style="stop-color:#B3B3B3"/>
</linearGradient>
<path fill="url(#SVGID_1_)" d="M336.167,45.25c0,22.94-62.93,41.9-144.51,44.85c-7.27,0.261-14.7,0.4-22.24,0.4
	c-10.5,0-20.77-0.26-30.73-0.76c-47.89-2.431-88.84-10.4-112.91-21.38c-14.69-6.7-22.61-14.511-23.61-22.86v-0.25
	c0-8.35,8.58-16.17,23.12-22.89C54.257,8.98,107.973,0,169.292,0C261.382,0,336.167,20.26,336.167,45.25z"/>
<path fill="#C6C6C6" d="M191.167,90.48v0.539c0,3.851-1.33,7.98-3.8,7.98h-44.23c-2.47,0-4.97-4.13-4.97-7.98V90.48
	c0-0.25,0.26-0.5,0.27-0.74c9.96,0.5,20.355,0.76,30.855,0.76c7.54,0,14.783-0.14,22.053-0.4
	C191.355,90.22,191.167,90.35,191.167,90.48z"/>
<circle fill="#383838" cx="146.417" cy="94.04" r="2.25"/>
<circle fill="#383838" cx="162.018" cy="94.04" r="2.25"/>
<circle fill="#383838" cx="154.217" cy="94.04" r="2.25"/>
<circle fill="#383838" cx="185.417" cy="94.04" r="2.25"/>
<circle fill="#383838" cx="169.817" cy="94.04" r="2.25"/>
<circle fill="#383838" cx="177.618" cy="94.04" r="2.25"/>
<g>
	<g>
		<path fill="#565656" d="M80.555,22.035c3.904-0.674,8.388-1.229,13.071-1.355c8.483-0.229,13.567,1.782,16.597,5.714
			c3.055,3.965,4.43,9.71,4.309,17.75c-0.123,8.113-1.486,14.748-4.68,19.224c-3.222,4.516-9.138,6.866-18.026,6.621
			c-4.207-0.116-7.838-0.437-11.016-0.881C72.886,54.236,72.76,36.985,80.555,22.035z M84.636,64.488
			c1.64,0.32,3.979,0.359,6.249,0.492c11.978,0.699,16.937-10.669,17.082-20.611c0.139-9.48-5.068-19.393-16.111-18.724
			c-2.995,0.182-5.593,0.405-7.331,0.798C79.746,38.706,79.79,52.253,84.636,64.488z"/>
		<path fill="#565656" d="M147.851,46.9c-7.557-0.004-11.334-0.006-18.891-0.013c0.113,7.236,0.494,10.854,1.911,18.091
			c8.128,0.095,12.192,0.131,20.32,0.189c0.262,2.195,0.412,3.292,0.746,5.487c-10.308-0.097-15.462-0.165-25.77-0.34
			c-3.849-17.624-3.849-32.362,0-49.986c9.899-0.167,14.85-0.233,24.749-0.329c-0.345,2.194-0.499,3.291-0.77,5.485
			c-7.71,0.057-11.566,0.094-19.276,0.183c-1.242,6.343-1.611,9.515-1.852,15.858c7.548-0.017,11.323-0.023,18.871-0.034
			C147.837,43.656,147.829,44.737,147.851,46.9z"/>
		<path fill="#565656" d="M199.107,48.419c-0.301-7.098-0.929-15.634-1.17-21.979c-0.084,0-0.127,0-0.211,0
			c-1.318,5.962-3.217,12.307-5.674,19.336c-3.439,9.886-5.338,14.835-8.567,24.727c-1.798,0-2.696,0.001-4.494-0.002
			c-3.185-9.713-4.976-14.572-8.14-24.273c-2.323-7.178-4.09-13.742-5.044-19.775c-0.056,0-0.084,0-0.141,0
			c-0.534,6.34-1.166,14.871-1.502,22.492c-0.409,8.722-0.456,13.084-0.125,21.804c-2.257-0.013-3.386-0.023-5.644-0.04
			c-0.972-17.122,0.691-33.885,3.197-50.796c3.019-0.02,4.527-0.028,7.545-0.041c2.443,9.834,4.104,14.762,7.411,24.619
			c2.013,6.273,3.724,11.872,4.956,17.166c0.084,0,0.127-0.002,0.212-0.002c1.167-5.143,2.912-10.738,5.072-17.164
			c3.457-9.859,5.239-14.789,7.983-24.631c3.019,0.01,4.528,0.017,7.546,0.034c2.165,16.931,3.625,33.755,2.857,50.845
			c-2.312,0.015-3.469,0.021-5.781,0.031C199.6,61.83,199.521,57.359,199.107,48.419z"/>
		<path fill="#565656" d="M257.678,44.81c0.12,13.843-11.828,26.037-25.706,26.47c-13.532,0.422-18.74-14.387-18.718-25.504
			c0.023-11.465,5.475-26.822,19.394-26.398C245.978,19.783,257.563,31.542,257.678,44.81z M219.963,45.624
			c0.137,10.653,4.236,20.684,13.504,20.357c10.446-0.369,17.646-10.879,17.579-20.878c-0.066-9.838-7.367-20.146-17.508-20.436
			C223.131,24.368,219.854,37.127,219.963,45.624z"/>
		<path fill="#565656" d="M262.783,62.197c2.282,1.713,5.749,3.093,9.912,3.008c6.174-0.127,11.242-3.574,12.368-8.438
			c1.043-4.507-1.447-7.172-7.868-9.566c-7.69-2.868-12.638-6.994-13.912-13.938c-1.408-7.675,2.077-13.246,10.948-13
			c4.673,0.129,8.638,1.377,11.271,2.644c0.309,2.003,0.396,3.007,0.46,5.018c-1.85-0.887-5.528-2.39-9.759-2.481
			c-6.38-0.137-7.516,3.817-6.81,7.161c0.967,4.579,4.052,6.868,10.908,9.478c8.4,3.198,12.882,7.073,11.217,14.103
			c-1.749,7.384-10.55,13.953-21.32,14.237c-4.404,0.116-8.639-1.154-10.529-2.861C260.988,65.413,261.613,64.34,262.783,62.197z"/>
	</g>
</g>
<g>
	<polygon fill="#C4C4C4" stroke="#C4C4C4" stroke-miterlimit="10" points="0.887,48.203 2.448,45.5 66.448,45.5 	"/>
</g>
</svg>
